<svg version="1.1" xmlns="http://www.w3.org/2000/svg" xmlns:xlink="http://www.w3.org/1999/xlink" x="0px" y="0px"
           viewBox="0 0 194 145" xml:space="preserve">
  <path
     d="M 1.7092645,77.8454 C 3.7346611,54.456527 19.142995,46.705407 32.584108,44.028677 c 22.064089,-6.86439 61.836372,-3.69222 61.836372,-1.24065 9.07079,4.65796 0.0421,17.57351 -1.716102,16.67064 -6.12891,-1.22579 2.206412,-9.80627 -10.296563,-11.76753 0,0 -15.444868,-1.71608 -22.554398,-0.73546 -1.961257,4.41282 -2.696722,25.251123 -2.696722,25.251123 0.245155,6.61922 6.128909,10.78689 8.335322,12.25782 0.245155,1.96126 20.347986,1.47095 16.180317,4.90313 -1.470931,5.14829 -9.070787,4.16767 -9.070787,4.16767 0,0 -14.709387,-1.96125 -16.915799,0.24516 -2.206396,27.94785 -13.114454,35.37003 -18.141574,40.45082 7.773876,1.12804 18.767322,0.42175 30.726218,0.60693 14.619575,0.22636 20.964396,-4.4674 25.659778,-6.10447 5.893961,0.43338 -7.594745,14.62275 -10.801765,15.48945 -2.338279,0.91161 -14.993959,-0.3267 -29.80089,-0.087 -17.071651,0.2761 -36.087192,-1.1984 -37.773067,-5.33343 -2.340245,-5.46058 11.093628,-4.00407 15.340754,-7.99116 8.58092,-4.68051 9.417501,-68.007363 9.417501,-68.007363 0.433379,-11.78793 -1.463264,-13.17016 -3.25884,-13.39693 C 20.065373,50.794247 12.087414,71.342342 14.514341,77.92971 14.25431,80.4433 7.3057927,82.54562 6.0923373,82.54562 2.6959303,82.34233 1.7545799,81.31914 1.7092645,77.84558 z"
     style="fill:#832001;stroke:none" />
  <path
     d="M 93.286629,29.076737 C 111.66193,-5.420273 177.2756,1.167097 177.2756,1.167097 c 11.78792,0.86676 16.12171,3.81373 16.29508,9.88106 -0.34671,6.93407 -3.90043,10.48778 -6.15399,10.66113 -3.81375,-1.21347 -1.30016,-7.71416 -2.51361,-8.92761 -4.68051,-7.45413 -31.37668,-3.03366 -31.37668,-3.03366 -2.77364,0.43338 -3.9871,20.02213 -3.9871,20.02213 0,0 -0.17335,14.21485 1.56017,19.0687 1.04011,2.25357 12.82803,7.10742 12.82803,7.10742 4.24713,1.21347 9.27434,1.04011 10.22776,1.90687 0.34671,1.64685 -3.55372,3.46705 -5.20055,3.72706 0,0 -22.69754,-0.71074 -22.3624,1.4735 -2.77362,5.46059 -2.60027,67.087173 -46.804989,77.141573 -1.532238,-0.30644 2.078429,-4.07632 3.242919,-4.99566 0.67417,-0.91933 7.28587,-3.91347 9.36971,-6.36504 3.81863,-3.65111 7.81123,-12.59125 9.40305,-21.40279 3.54755,-14.76105 10.03505,-45.798253 -5.4098,-44.082153 14.64163,-8.72665 12.90796,-22.47723 14.4241,-29.07234 4.6805,-20.97557 -1.90687,-22.18902 -1.90687,-22.18902 -22.79577,4.50714 -23.66253,23.74919 -26.08945,22.10236 -2.34025,-2.94698 -11.181202,-0.43338 -9.534351,-5.11389 z"
     style="fill:#832001;stroke:none" />
</svg>
